<svg xmlns="http://www.w3.org/2000/svg" width="103.708" height="122.557" viewBox="0 0 103.708 122.557"><defs><style>.a{opacity:0.975;}.b{fill:#4c5976;opacity:0.9;}</style></defs><g class="a" transform="translate(0 0)"><path class="b" d="M116.282,20.075a95.35,95.35,0,0,1-11.852.658c-10.206,0-20.083-3.457-28.808-6.585A28.367,28.367,0,0,0,72.165,13a6.166,6.166,0,0,0-3.457,0c-1.152.329-2.3.823-3.457,1.152-8.725,3.128-18.6,6.585-28.808,6.585a93.613,93.613,0,0,1-11.852-.658,5.8,5.8,0,0,0-4.28,1.317A5.35,5.35,0,0,0,18.5,25.508V83.453c0,28.808,47.574,50.537,49.714,51.36a5.069,5.069,0,0,0,2.14.494,4.556,4.556,0,0,0,2.14-.494c1.975-.988,49.714-22.552,49.714-51.36V25.508a5.894,5.894,0,0,0-1.811-4.115A5.42,5.42,0,0,0,116.282,20.075Zm-4.938,63.377c0,17.12-27.82,34.076-40.989,40.5-13.169-6.42-40.989-23.376-40.989-40.5V31.434c2.3.165,4.609.165,7.079.165,12.017,0,23.376-3.951,32.429-7.079.494-.165,1.152-.329,1.646-.494.494.165,1.152.329,1.646.494,9.054,3.128,20.248,7.079,32.429,7.079,2.3,0,4.774,0,7.079-.165V83.453Z" transform="translate(-18.5 -12.75)"/><path class="b" d="M51.114,65.371l-9.877-9.877L33.5,63.231,51.114,80.68,90.457,41.172,82.885,33.6Z" transform="translate(-8.808 0.723)"/></g></svg>